<svg version="1.1" xmlns="http://www.w3.org/2000/svg" class="logo-svg"
    viewBox="639 433 770 1185" width="120" height="120"
    preserveAspectRatio="xMidYMid meet">

     <!-- ORIGINAL LOGO — CENTERED -->
      <path fill="#000" stroke="#FFF" stroke-width="2" d="M 1023.33 433.154 C 1043.77 433.414 1214.18 431.793 1219.3 434.053 C 1281.64 492.682 1345.62 550.844 1407.34 609.852 L 1407.4 849.689 C 1407.29 908.046 1406.4 970.787 1407.75 1029.01 L 1407.99 1231.77 L 1203.85 1231.81 L 1139 1231.76 C 1127.97 1231.76 1114.32 1232.25 1103.63 1231.58 C 1119.3 1253.33 1135.77 1273.79 1152.07 1295.04 C 1182.22 1334.34 1212.07 1373.87 1241.62 1413.63 C 1254 1413.04 1266.81 1413.01 1279.22 1413.17 C 1321.76 1413.72 1364.73 1412.44 1407.24 1413.5 C 1407.58 1456.14 1407.61 1498.77 1407.33 1541.41 C 1407.32 1564.93 1407.91 1590.98 1407.25 1614.29 L 1122.68 1614.74 L 1024.23 1518.81 C 1023.31 1549.84 1023.93 1583.58 1023.99 1614.76 C 1005.32 1614.72 832.575 1615.51 829.009 1613.83 C 812.495 1596.83 791.241 1578.55 773.937 1561.99 C 730.016 1519.98 683.74 1479.27 639.87 1437.37 L 639.926 1029.17 L 639.789 818.81 C 740.609 819.064 844.53 819.714 945.176 818.576 C 915.339 778.615 885.193 738.886 854.743 699.391 C 841.344 681.85 818.428 649.8 804.431 634.248 C 749.899 634.334 694.319 634.94 639.872 634.226 L 639.954 433.416 L 925.341 433.328 C 955.737 464.739 991.85 496.348 1023.3 528.131 C 1022.91 496.705 1023.23 464.619 1023.33 433.154 z"/>
      <path fill="#404040" stroke="FFF" stroke-width="2" d="M 945.176 818.576 C 970.401 850.981 1000.23 888.763 1023.97 922.009 L 1023.9 1029.3 L 752.037 1029.17 C 715.372 1029.16 676.297 1029.92 639.926 1029.17 L 639.789 818.81 C 740.609 819.064 844.53 819.714 945.176 818.576 z"/>
      <path fill="#FFF" stroke="#FFF" stroke-width="2" d="M 1023.33 433.154 C 1043.77 433.414 1214.18 431.793 1219.3 434.053 C 1217.97 443.336 1218.52 470.096 1218.53 480.742 L 1218.67 572.054 L 1218.71 735.868 C 1218.7 762.432 1217.93 792.573 1218.74 818.811 C 1155.18 818.402 1087.02 817.61 1023.65 818.968 L 1023.66 604.522 C 1023.67 595.639 1024.48 533.48 1023.3 528.131 C 1022.91 496.705 1023.23 464.619 1023.33 433.154 z"/>
      <path fill="#808080" stroke="#FFF" stroke-width="2" d="M 828.663 1231.67 L 1024.08 1231.2 C 1023.36 1296.66 1023.8 1363.38 1023.99 1428.88 C 1024.06 1447.82 1024.02 1466.76 1023.86 1485.7 C 1023.81 1494.63 1023.34 1510.28 1024.23 1518.81 C 1023.31 1549.84 1023.93 1583.58 1023.99 1614.76 C 1005.32 1614.72 832.575 1615.51 829.009 1613.83 C 829.632 1599.64 829.078 1580.68 829.063 1566.08 L 828.986 1473.71 C 828.929 1393.37 829.618 1311.87 828.663 1231.67 z"/>
      <path fill="#BFBFBF" stroke="#FFF" stroke-width="2" d="M 1023.88 1029.52 C 1067.98 1029.16 1112.09 1029.07 1156.19 1029.26 L 1407.75 1029.01 L 1407.99 1231.77 L 1203.85 1231.81 L 1139 1231.76 C 1127.97 1231.76 1114.32 1232.25 1103.63 1231.58 C 1078.25 1198.93 1047.84 1161.51 1023.75 1128.57 C 1022.58 1097.75 1023.6 1060.63 1023.88 1029.52 z"/>
     <!-- logo complete -->

</svg>
